<?xml version="1.0" standalone="no"?>
<svg viewBox="0 0 900 700" xmlns="http://www.w3.org/2000/svg">
  <path fill="#24A1E1"
    d="M49.2,-66.5C62.9,-57.7,72.5,-42.2,76.7,-25.8C80.8,-9.3,79.5,8,73.9,23.6C68.3,39.2,58.4,52.9,45.3,60.9C32.3,69,16.2,71.2,1.1,69.7C-13.9,68.1,-27.8,62.7,-41.4,54.9C-55.1,47.1,-68.5,36.9,-73.4,23.5C-78.3,10,-74.7,-6.5,-67.6,-20C-60.5,-33.5,-50,-43.9,-38.2,-53.3C-26.3,-62.7,-13.2,-71,2.3,-74.2C17.7,-77.3,35.5,-75.3,49.2,-66.5Z"
    transform="translate(100 100)" />
</svg>